<svg xmlns="http://www.w3.org/2000/svg" viewBox="0 0 468 527.71"><defs><style>.cls-1{fill:#231f20;}.cls-2{fill:none;stroke:#231f20;stroke-miterlimit:10;stroke-width:14px;}</style></defs><title>Artboard 11</title><g id="Layer_6" data-name="Layer 6"><path class="cls-1" d="M327.89,271.23a8.62,8.62,0,0,0-3.11-1.14c-.29,0-.53-.08-.86-.11-.05,0-.08,0-.15-.05s-.13-.1-.19-.1l-.34.06-.68.1c-.43.08-1,.08-1.48.12a10.1,10.1,0,0,0-1.52.27l-.38.08a.94.94,0,0,0-.3.15l-.57.33a9.71,9.71,0,0,1-1.29.61,11.26,11.26,0,0,0-1.3.65,4.91,4.91,0,0,0-.61.35l-.39.42a7.94,7.94,0,0,0-.74.82l-.34.42c-.14.14-.32.28-.48.42l-.48.43a1.45,1.45,0,0,0-.31.43c-.18.29-.36.58-.51.87-.69,1.19-1,2.29-1.84,3.68a21.57,21.57,0,0,0-.74,3.64q-.09.9-.12,1.8l-.09.95a7.91,7.91,0,0,0,.06.86c.06.56.13,1.12.24,1.65s.3,1,.42,1.53a24.13,24.13,0,0,0,2.16,3.87,12.26,12.26,0,0,0,1.6,2.07,5.29,5.29,0,0,0,.88.94c.29.3.61.56.92.83a4,4,0,0,0,1,.7,4.75,4.75,0,0,0,1,.71,12,12,0,0,0,2.15,1.13c.38.12.74.33,1.12.47a12,12,0,0,0,1.17.33c.39.12.78.23,1.18.33a6.35,6.35,0,0,0,1.21.25c.8,0,1.62.36,2.43.35s1.6,0,2.39-.06a9.86,9.86,0,0,0,4.54-1.5c.34-.19.68-.4,1-.62s.56-.62.87-.82.45-.72.78-.83c.22-.33.41-.7.63-1a18,18,0,0,0,2.21-4.19,22.5,22.5,0,0,0,1.82-9.59,17,17,0,0,0-1-5,12.93,12.93,0,0,0-2.58-4.45,16.23,16.23,0,0,0-3.78-3.34l-.53-.33a6.28,6.28,0,0,0-.59-.27l-1.18-.51a9.06,9.06,0,0,0-1.13-.43l-1.2-.29-1.12-.25a11.11,11.11,0,0,0-1.14-.08l-1.09-.06c-.18,0-.35-.06-.54,0l-.51,0a16.58,16.58,0,0,0-3.92.67,9.89,9.89,0,0,1,3.9-.21,13.31,13.31,0,0,1,3.51.93,10.3,10.3,0,0,1,4.79,4.11,8,8,0,0,1,.91,5.29,8.76,8.76,0,0,1-2,4.17,7.72,7.72,0,0,1-1.48,1.39,3.15,3.15,0,0,1-1.82.71,3.75,3.75,0,0,1-2.17-.55,13.75,13.75,0,0,1-1.89-1.33,7.23,7.23,0,0,1-2.29-3.46,10.65,10.65,0,0,1-.41-1.77,3.16,3.16,0,0,1,0-.87,2.71,2.71,0,0,1,.09-.41,1.54,1.54,0,0,1,.14-.44,1.69,1.69,0,0,1,.12-.45l.19-.45a5.4,5.4,0,0,1,.42-.76,3.4,3.4,0,0,1,.92-1,1.43,1.43,0,0,1,.71-.25l.1,0s0,0,.05,0,.32-.13.48-.18a7.15,7.15,0,0,1,2.2-.38Z"/></g><g id="Layer_7" data-name="Layer 7"><rect class="cls-2" x="5" y="5" width="458" height="517.71"/></g><g id="Layer_2" data-name="Layer 2"><path d="M143.44,254.52a71.79,71.79,0,0,1-.81-12.92,69.68,69.68,0,0,1,1.5-12.92l.26-1c.16-.66.46-1.63.84-2.85a60.72,60.72,0,0,1,4.1-9.79A56.73,56.73,0,0,1,158,202.85a61.56,61.56,0,0,1,12.78-10.47,76.48,76.48,0,0,1,14.12-6.77l3.36-1.15c1.1-.34,2.18-.63,3.22-.93,2.08-.64,4.06-1,5.85-1.44,3.59-.72,6.49-1.21,8.4-1.4s2.82-.28,2.41-.14a104.19,104.19,0,0,1,21.17,0,46.6,46.6,0,0,1,7,1.2,11.14,11.14,0,0,1,3.82,1.51c1.32,1.06.07,2.23-4.55,3.48s-12.66,2.66-24.36,5.77a111,111,0,0,0-20.58,8.25,68.63,68.63,0,0,0-8.85,5.79,47.26,47.26,0,0,0-6.75,6.51,38,38,0,0,0-6.92,12.09c-.31.8-.52,1.55-.71,2.2s-.33,1.22-.44,1.68-.2.82-.26,1.06-.07.37-.07.37a49.94,49.94,0,0,0-1.14,20.66,61.42,61.42,0,0,0,6.27,18.7,105.3,105.3,0,0,0,11.68,17.57,213.15,213.15,0,0,0,15,16.42c2.68,2.68,5.43,5.36,8.24,8.08l4.24,4.13,4.16,4.12c10.92,10.63,23.23,22,32.82,36.45a92,92,0,0,1,11.58,23.87,77.4,77.4,0,0,1,2.86,13.37,71.13,71.13,0,0,1,.39,13.9A63.28,63.28,0,0,1,259,424.72a69.52,69.52,0,0,1-7.7,15.19,78.35,78.35,0,0,1-24.08,23l-1.09.61c-.72.38-1.75,1-3.16,1.7a86.37,86.37,0,0,1-12.26,5.09,96.75,96.75,0,0,1-19.33,4.15,107.07,107.07,0,0,1-11.7.58c-1,0-2.05,0-3.07,0l-3.1-.18-3.16-.19-1.6-.11-1.61-.2a99.66,99.66,0,0,1-26.92-6.43,79.44,79.44,0,0,1-25.27-16,32.9,32.9,0,0,1-2.68-2.73c-.86-.94-1.74-1.87-2.58-2.82l-2.34-3-1.16-1.51-1-1.6L103.13,437l-1.8-3.32-.88-1.66c-.27-.56-.5-1.14-.76-1.71l-1.47-3.41a74.6,74.6,0,0,1-4.87-27.72,77.37,77.37,0,0,1,3-20.32c.2-.74.4-1.48.61-2.2s.48-1.41.72-2.11c.5-1.37.94-2.73,1.46-4,1.12-2.53,2.09-4.95,3.3-7.1a78.68,78.68,0,0,1,13.12-18.37c1-.94,1.85-1.79,2.66-2.54l1.15-1c.38-.32.75-.6,1.09-.86a24.76,24.76,0,0,1,3.21-2.16c1.53-.8,1.87-.35,1.27,1.08a22.7,22.7,0,0,1-1.6,2.88c-.36.6-.83,1.21-1.26,2s-.92,1.52-1.45,2.36-1.12,1.71-1.68,2.68l-1.76,3.08c-.31.54-.64,1.08-1,1.65s-.59,1.18-.9,1.78c-.59,1.22-1.3,2.44-1.88,3.78a86.55,86.55,0,0,0-6.28,18.54c-.23.86-.34,1.76-.5,2.66s-.3,1.79-.46,2.7c-.24,1.83-.39,3.7-.58,5.59a71.66,71.66,0,0,0,.24,11.6c0-.41.06-.18.17.6,0,.39.11.93.18,1.59s.26,1.43.4,2.33a59.72,59.72,0,0,0,4.63,15.18A56.75,56.75,0,0,0,124.94,439a63.06,63.06,0,0,0,23.85,12.79,91.63,91.63,0,0,0,28.14,3.44A81.63,81.63,0,0,0,201,451.1a65.28,65.28,0,0,0,15.11-7.36c.82-.58,1.57-1.07,2.2-1.53l1.57-1.2c.43-.31.74-.58.95-.76l.32-.27a53.51,53.51,0,0,0,13.36-15.29,44.52,44.52,0,0,0,5.94-18.62,49.81,49.81,0,0,0-.29-9.47,54.2,54.2,0,0,0-2-9.5A69.56,69.56,0,0,0,229.3,369a127.49,127.49,0,0,0-13.56-16.7c-5.06-5.39-10.58-10.59-16.31-16.19L195.27,332l-4.15-4c-2.8-2.72-5.65-5.48-8.48-8.33a230.05,230.05,0,0,1-16.56-18.17,127.19,127.19,0,0,1-14.17-21.39A83.6,83.6,0,0,1,143.44,254.52Z"/></g><g id="Layer_3" data-name="Layer 3"><path d="M146.09,67.83a1.51,1.51,0,0,1-1.12-.51c-1.87-1.37-4.06-3.75-4.54-6.63s.73-6.23,5.49-9.64a4.64,4.64,0,0,1,1.39-.6q14.13,1,28.35,1.15c9,.12,18,0,27-.26s18-.75,27.19-1.24c2.3-.11,4.61-.23,7.06-.3,1.24,0,2.46-.06,4.1,0l.7,0,.87.09.63.11a7.23,7.23,0,0,1,.81.18l.56.16.28.09c.06,0,.2.06.44.16a11.11,11.11,0,0,1,1.2.59l.56.35a9.16,9.16,0,0,1,1.27,1A9.43,9.43,0,0,1,249.49,54a8.21,8.21,0,0,1,.95,1.86,9.16,9.16,0,0,1,.53,2.83,8.63,8.63,0,0,1-.28,2.49,9.37,9.37,0,0,1-1.21,2.68,7,7,0,0,1-.62.83l-.36.4c-.26.27-.52.52-.79.75l-.31.25-.2.15c-.26.19-.55.39-.81.55s-.71.42-1,.54l-.7.34c-4.1,1.91-8.21,3.82-12.27,5.78-8.12,3.91-16.15,8-23.9,12.27a167.06,167.06,0,0,0-21.83,14.1c-6.56,5.16-12.14,11-14.75,17.32a23.21,23.21,0,0,0-1.45,4.82c-.17.82-.25,1.66-.34,2.5s-.12,1.75-.08,2.52a12.65,12.65,0,0,0,2.44,7.76l.3.4a3.61,3.61,0,0,0,.3.33l.42.47,1,.91c.38.27.71.58,1.11.85s.79.56,1.24.82a28.37,28.37,0,0,0,6,2.68s.3.15.9.39,1.46.59,2.61,1a73.67,73.67,0,0,0,9.74,2.55c4.09.82,8.88,1.49,13.8,2s10,.85,14.58,1.17c3.9.14,7.14.3,9.79.46s4.69.38,6.21.65c3,.53,3.92,1.31,3.21,2.26-1.41,1.84-9.22,4.53-19.1,6.27.52,0-2.16.55-6.55,1.07a153.26,153.26,0,0,1-16.8,1.17,96,96,0,0,1-17.9-1.3l-1.82-.32-1.65-.38-1.46-.34-1.25-.36-1.75-.51-.63-.21a42,42,0,0,1-9.26-4.93c-.75-.53-1.48-1.14-2.21-1.72s-1.42-1.28-2.11-2l-1-1.08-.65-.73-.74-.94-.73-1-.66-1-.65-1-.57-1.07a29.85,29.85,0,0,1-3-9,36.82,36.82,0,0,1-.36-8.76,43.63,43.63,0,0,1,1.45-8.38,45.89,45.89,0,0,1,3.1-7.86,55.16,55.16,0,0,1,9.38-12.87,94.12,94.12,0,0,1,11.16-9.81,203.13,203.13,0,0,1,23.81-15c8.09-4.43,16.25-8.51,24.44-12.44l6.14-2.92,3.08-1.43,1.54-.72.55-.25h0l.29.56c.18.35.44.79.57,1.07.29.6.6,1.19.93,1.76A19.79,19.79,0,0,0,241.09,58a2.46,2.46,0,0,0,.68.72.41.41,0,0,0,.21.16l.12,0h0a.21.21,0,0,0-.1.06c-.08.06-.05.08-.15.21a1.87,1.87,0,0,0-.22.39,3.68,3.68,0,0,1-.17.5,7,7,0,0,0-.35,1.32c-.12.56-.27,1.2-.36,1.81s-.14,1.17-.28,2l-.15,1.19-.07.6c0,.25,0,.07,0,.12l-.88,0c-.87,0-1.93,0-3,.06-2.13.07-4.35.19-6.57.3-8.93.48-18,1-27.09,1.23s-18.19.38-27.31.26Q160.77,68.83,146.09,67.83Z"/></g><g id="Layer_4" data-name="Layer 4"><path d="M317.43,338.09a1.41,1.41,0,0,1,.38-1.13c2.32-3.85,8.42-9.75,16.27-.83a4.7,4.7,0,0,1,.76,1.35c.34,9.74.48,19.47.49,29.17,0,20.37-.65,40.7-.78,60.69v2l0,1.84c0,1.22,0,2.46.14,3.64a57,57,0,0,0,.83,7s0,.35.11,1q0,.48.12,1.17l.27,1.49a24.83,24.83,0,0,0,2.57,7.86,11.13,11.13,0,0,0,7.05,5.72,18.74,18.74,0,0,0,5.84.68,20.84,20.84,0,0,0,5.82-1,24.55,24.55,0,0,0,7.33-4.26,55,55,0,0,0,4.25-4c2.06-2.12,3.13-2.63,3.61-1.52s.27,3.85-1.35,7.45a25.31,25.31,0,0,1-10,11.17c.6-.26-2.13,1.77-7.33,3.18a30.61,30.61,0,0,1-9.33.9,24.47,24.47,0,0,1-11.41-3.56c-.87-.59-1.77-1.19-2.59-1.83s-1.55-1.39-2.3-2.1-1.31-1.5-1.95-2.25a27.35,27.35,0,0,1-1.64-2.31l-.76-1.16c-.21-.38-.42-.76-.62-1.14-.41-.76-.81-1.51-1.18-2.24-.6-1.45-1.25-2.86-1.67-4.14s-.83-2.46-1.12-3.5-.49-1.95-.68-2.69-.33-1.34-.39-1.74l-.11-.61c-.16-1.28-.37-2.59-.47-3.86l-.27-3.81c-.07-1.27-.07-2.51-.11-3.77l0-1.86v-1.75c0-10.24.27-20.36.43-30.45s.31-20.14.29-30.17Q317.91,352.35,317.43,338.09Z"/></g></svg>