<svg xmlns="http://www.w3.org/2000/svg" viewBox="0 0 468.07 527.71">
    <defs>
        <style>
            .cls-1 {
                fill: #231f20;
            }

            .cls-2 {
                fill: #545554;
            }

            .cls-3 {
                fill: none;
                stroke: #231f20;
                stroke-miterlimit: 10;
                stroke-width: 10px;
            }

            #line-left {
                /**transform-origin:bottom;**/
                transform: scale(0,0);
                animation: 1.5s show-left linear 0.25s forwards;
            }

            #line-top {
                /**transform-origin:left;**/
                transform: scale(0,0);
                animation: 1.5s show-top linear 0.25s forwards;
            }

            #line-right {
                /**transform-origin:top;**/
                transform: scale(0,0);
                animation: 1.5s show-right linear 0.25s forwards;
            }

            #line-bottom {
                /**transform-origin:right;**/
                transform: scale(0,0);
                animation: 1.5s show-bottom linear 0.25s forwards;
            }

            @keyframes show-left {
                0% {
                    /**transform: translate(0px, 500px); **/
                    transform: scale(1,0);
                    opacity:0.5;
                }
                30% {
                    opacity:1;
                }
                100% {
                    /**transform: translate(0px, 0px); **/
                    transform: scale(1,1);
                }
            }

            @keyframes show-top {
                0% {
                    /**transform: translate(-500px, 0px); **/
                    transform: scale(0,1);
                    opacity:0.5;
                }
                30% {
                    opacity:1;
                }
                100% {
                    /**transform: translate(0px, 0px); **/
                    transform: scale(1,1);
                }
            }

            @keyframes show-right {
                0% {
                /**transform: translate(0px, -500px); **/
                transform: scale(1,0);
                opacity:0.5;
                }
                30% {
                    opacity:1;
                }
                100% {
                    /**transform: translate(0px, 0px); **/
                    transform: scale(1,1);
                }
            }

            @keyframes show-bottom {
                0% {
                /**transform: translate(500px, 0px); **/
                transform: scale(0,1);
                opacity:0.5;
                }
                30% {
                    opacity:1;
                }
                100% {
                    /**transform: translate(0px, 0px); **/
                    transform: scale(1,1);
                }
            }
        </style>
    </defs>
    <g>
        <g>
            <path class="cls-1" d="M322.78,286.1s0,0,0,0Z" transform="translate(0 0)" />
            <path class="cls-1" d="M327.44,286.76h0l-.27-.13Z" transform="translate(0 0)" />
            <path class="cls-1" d="M328.67,285.08h0C328.64,285.06,328.57,285.05,328.67,285.08Z" transform="translate(0 0)" />
            <path class="cls-1" d="M327,289s0,0,0,.06Z" transform="translate(0 0)" />
            <path class="cls-1" d="M322.32,283.43h0Z" transform="translate(0 0)" />
            <path class="cls-1" d="M322.5,283.51a.2.2,0,0,1-.18-.07c-.16,0-.19,0-.13.1S322.36,283.5,322.5,283.51Z" transform="translate(0 0)" />
            <path class="cls-1" d="M325.5,280.13l0,.07Z" transform="translate(0 0)" />
            <path class="cls-1" d="M329.53,298l-.06.06A.06.06,0,0,0,329.53,298Z" transform="translate(0 0)" />
            <path class="cls-1" d="M324.8,280l.05.29C324.83,280.15,324.81,280.06,324.8,280Z" transform="translate(0 0)" />
            <path class="cls-1" d="M327.17,286.62l-.11-.06Z" transform="translate(0 0)" />
            <path class="cls-1" d="M329,283.41l.22,0h0Z" transform="translate(0 0)" />
            <path class="cls-1" d="M324.07,274.6s0,.07,0,.11l.05-.21A.14.14,0,0,0,324.07,274.6Z" transform="translate(0 0)" />
            <path class="cls-1" d="M329.59,281l-.09,0c-.07.07-.05.17,0,.29l.33-.14A1.57,1.57,0,0,0,329.59,281Z" transform="translate(0 0)" />
            <path class="cls-1" d="M332.68,272.14c0,.32.06.64.07.95a16.92,16.92,0,0,1-2-1.24,3.32,3.32,0,0,0-2-.65l.13-.13c-.08-.11-.29.21-.69.23a1.46,1.46,0,0,1-.79-.26,13.2,13.2,0,0,1-1.4-1.15v-.07c-.1,0-.11.14-.28-.07l.42.5c-.3.14-.57.45-.93.49a.57.57,0,0,1-.09-.35c-.31,0-.61.05-.92.11l-.3-.46c-.28.28-.07,1.22-.85.76.35.65-.3.46-.17.79a2.2,2.2,0,0,0-.23-.3c-.41.12-1.15.53-1.23.9a8.37,8.37,0,0,1,1,.6,4.61,4.61,0,0,1,1.19,1.2c-.47-.12-.1.1,0,.32v-.18c.28.15.31.59.44.7l0-.12v.06a.32.32,0,0,1,0-.17c0-.09,0-.17.07-.15v.05c.1-.07.29,0,.37,0v.36c.09-.34.42-.06.69.3s.49.86.59.88c.12.49.49,0,.7.28.37.23,0,.56.15.92s.08-.42.18-.41a5.22,5.22,0,0,1,.11.57c-.17,0-.16.22-.18.36.21.15.24.88.61.27.12.44,0,.69.06.79a1.5,1.5,0,0,1,.09-.42c-.06.35.09,0,.08-.12.15-.09.21.32.23.65s0,.61.29.31l-.09.11a6.06,6.06,0,0,1,1-1.11l-.1.27.27-.1a.83.83,0,0,1-.23.35c.36-.07.35.41.47.64.34-.43.65-.87.95-1.33,0,.46-.36,1.29.08,1l-.34.45c-.59,1,.55,0,.41.34-.12.17-.26.35-.39.5,0-.06-.06-.13-.1-.18a2.73,2.73,0,0,1-.55.8h0a.22.22,0,0,1,.07-.06l0,0c.28-.12.5-.12.54,0s.49.24,0,.76l.6-.1-.28.35-.46.12a3.23,3.23,0,0,0-.48-.83l-.21.09c.07.14.34.24.33.36a1.64,1.64,0,0,1-.84.38l.48-.06c.18.49.22.53-.25,1.14l.23-.07c.15.09.31.2-.08.26a1.23,1.23,0,0,1-1,.9l.56.09c0,.07-.9.1-.11.21.07.06.16.12.23.19s.25.21-.09.29h0c-.28.2.51.08.13.31-.41,0,.68.24.53.37l-.82,0c-.53.13.27.38.15.76a2.59,2.59,0,0,1-1.57-.34c.66.38.45.21.71.53a1.69,1.69,0,0,1-.6-.25c-.4.05.23.2.16.33a12.38,12.38,0,0,1,1.38.68H329c.22.27.27.52-.07.59l-.26-.12a1.19,1.19,0,0,0,.05.22l-.33-.15v.24l.1,0c0,.09.07.27-.12.21l-.18-.11c-.59-.25.05.35,0,.6l-.29-.34c-.33-.27.45.51.25.41l-.36-.4c.42.58-.15-.06-.33-.26l.45.55-.16-.07a5.86,5.86,0,0,1-.74-1c.1.16.19.32.28.49l-.34-.54c.37.64-.06-.09.11.27l-.23-.43a6.58,6.58,0,0,1,.34.83c0-.12-.08-.25-.13-.38l.4.84c.22.68-.14,0-.09.21l-.06-.27c0,.24-.14-.13-.23-.32a2.16,2.16,0,0,1,.16.52c0,.06-.11-.31-.16-.4.18.59.17.92,0,.64,0-.09,0-.17,0-.22s0,.25,0,.11l-.11-.66c0,.21.05.42.07.63-.06-.18,0,.29-.1-.15v-.14a1.2,1.2,0,0,1-.21-.17v-.53c-.05.72-.05-.28-.12.61,0-.24,0-.16-.07-.15s-.16,0,0-.53c-.24-.09-.43.1-.6.24s-.36.21-.44-.07c.14-.85,0-.62-.11-.76a1.4,1.4,0,0,1-.68.15c-.12,0-.32,0-.4,0a1.19,1.19,0,0,1-.23.07c.66-1-1-.49-.78-1.28a3,3,0,0,0-.44.21c.25-.26.21-.28.14-.3s-.16-.06.05-.22l.1-.06-.29.07-.39.17c.19-.12-.09-.12.49-.3h.06c.58-.17-.29,0,.21-.17l-.63.15.1-.09h.12a1,1,0,0,1-.39-.06c-.08,0-.12,0-.14-.1a.66.66,0,0,1,.13-.47c.17-.3.37-.53-.22-1,.68.21-.34-.21.42-.09,1,0-.14-.35-.35-.58a.55.55,0,0,1-.13-.05l.16-.23c.88.43-.71-.42,0,0a1.35,1.35,0,0,0,.7-.85c.12-.32.27-.67.56-.73l-.19-.16c.13-.06.09-.43.42-.18s-.15-.66-.11-.73c-.09-.45.45.23.37.22.05-.16-.16-1,.2-.77.18.36.23.14.32-.08s.2-.42.28,0v-.08c.18.3.26.17.38.05s.25-.26.36.05l0,.13a7.52,7.52,0,0,1,1.28-2.58,28.65,28.65,0,0,0,.41-3.07,10.27,10.27,0,0,0-1.26-2.72,10.79,10.79,0,0,0-4.62,1.31,11.78,11.78,0,0,0-3.66,1,13.24,13.24,0,0,0-4.14,7.47c.18.23.36.46.56.68a2.58,2.58,0,0,0-.76,2.33c0,.42.08.84.08,1.25,0,.11,0,.22,0,.32s0,.29,0,.45a4.85,4.85,0,0,1-.14.82l.59-.06c.12.54-.24.58-.32.75a7.77,7.77,0,0,0,.72,2,9.2,9.2,0,0,0,1,1.43c.18.22.38.44.57.65l.41.43.81.77c.28.27.53.52,1,.93a7.79,7.79,0,0,0,.65.52l.48.35c.34.25.71.51,1.11.77a26.69,26.69,0,0,0,2.53,1.41c.29.52,1.42.53,1.55,1a3.56,3.56,0,0,1,.41-.17,3.92,3.92,0,0,1,.61-.07,9.8,9.8,0,0,1,1.2-.05c.79,0,1.56,0,2.32,0l0,.07c.22-.07.45-.14.67-.23a.19.19,0,0,1,0,.16c.64-.65,2-.6,2.93-1l0,.09a8,8,0,0,0,3-3.14,18.53,18.53,0,0,0,1.41-3.41c.56-1.94,1-3.88,1.48-6.13a4.8,4.8,0,0,0,0-3.54c-.36-1.25-.9-2.45-1.18-3.88.15-.36-.61-1.87-1.75-3A7.63,7.63,0,0,0,332.68,272.14Z" transform="translate(0 0)" />
            <path class="cls-1" d="M325.16,270.39h0C325.19,270.14,325.15,270.23,325.16,270.39Z" transform="translate(0 0)" />
            <polygon class="cls-1" points="329.43 279.43 329.42 279.42 329.19 279.7 329.43 279.43" />
            <path class="cls-1" d="M326.59,277.81c.11.13.13.08.15,0A.1.1,0,0,0,326.59,277.81Z" transform="translate(0 0)" />
            <path class="cls-1" d="M322.65,271c-.16,0-.07.14,0,.29l.27-.08C322.86,271.16,322.76,271,322.65,271Z" transform="translate(0 0)" />
            <path class="cls-1" d="M323.65,274.31l0,.21A.18.18,0,0,0,323.65,274.31Z" transform="translate(0 0)" />
        </g>
        <g>
            <path class="cls-1" d="M330.67,377c0-.08,0-.11,0,0Z" transform="translate(0 0)" />
            <path class="cls-1" d="M333.08,433s0,0,0,0l.39,0Z" transform="translate(0 0)" />
            <path class="cls-1" d="M334.33,441l0,.06C334.39,441.07,334.48,441,334.33,441Z" transform="translate(0 0)" />
            <path class="cls-1" d="M330.11,412.89a.13.13,0,0,0-.07-.15A.35.35,0,0,1,330.11,412.89Z" transform="translate(0 0)" />
            <path class="cls-1" d="M330.25,360v0a.76.76,0,0,1,.09-.09Z" transform="translate(0 0)" />
            <path class="cls-1" d="M330.5,360.23c-.11.21-.21-.06-.24-.15a.6.6,0,0,0-.14.68C330.35,360.76,330.33,360.33,330.5,360.23Z" transform="translate(0 0)" />
            <path class="cls-1" d="M330,329.22l.1.09A.43.43,0,0,0,330,329.22Z" transform="translate(0 0)" />
            <path class="cls-1" d="M318.77,414a1.47,1.47,0,0,1-.06-.14A.14.14,0,0,0,318.77,414Z" transform="translate(0 0)" />
            <path class="cls-1" d="M329.77,334.1l.37.06A1.16,1.16,0,0,0,329.77,334.1Z" transform="translate(0 0)" />
            <path class="cls-1" d="M333.48,433.06l.15,0Z" transform="translate(0 0)" />
            <path class="cls-1" d="M337.41,447.42a1.37,1.37,0,0,0-.21.19v0Z" transform="translate(0 0)" />
            <path class="cls-1" d="M369.27,447.7l-.13-.06.13.29A.3.3,0,0,0,369.27,447.7Z" transform="translate(0 0)" />
            <path class="cls-1" d="M343.37,454.29a.39.39,0,0,0,.08-.1,2.26,2.26,0,0,0-.94-.57l-.23.39C342.64,454.13,343,454.2,343.37,454.29Z" transform="translate(0 0)" />
            <path class="cls-1" d="M356.26,464.89c-.6-.15-1.19-.32-1.76-.52,2.42-.72,4.17-1.25,5.82-1.89a13,13,0,0,0,4.65-2.92l-.08.3c.31-.1.25-.61.94-1.34s2.09-1.64,5.29-3.33l.07.06c.14-.19,0-.31.49-.51-.4.17-.78.36-1.19.52a10.8,10.8,0,0,1,.88-2.16.55.55,0,0,1,.51,0c.43-.62.82-1.27,1.2-1.91L374,451c.1-.77-1.1-1.11.39-2.35-1.07.18,0-1-.52-1,.13,0,.36-.14.57-.22a12.74,12.74,0,0,0,.6-1.91,3.55,3.55,0,0,0,.09-1.64l-.51.51c-.32.3-.75.7-1.24,1.09a10.43,10.43,0,0,1-2.8,1.73c.87-1.05.08-.35-.3-.27l.15.18c-.57.59-1.05.29-1.38.54l.14.06,0-.08a.2.2,0,0,1,.17.14c.11.05.16.13,0,.29l0-.06a3,3,0,0,1-.67.92l-.37-.26c.19.48-.65,1.09-1.6,1.55s-2,.78-2.28,1c-.91.11-1.08,1.24-2,1.6-1.21.78-1-.08-1.75,0-.86.28.44.33.18.56-.4,0-.81,0-1.21.06.47-.37,0-.42-.14-.51-.77.44-2.33.31-2.15,1.23-1.23.09-1.35-.25-1.82-.12.21.1.57.12.64.28-.57-.2-.17.18,0,.19-.25.31-1.25.26-2.12.17s-1.62-.21-1.59.28l0-.17c0,.75.39,1.4,0,1.91l-.39-.28-.46.39c-.37-.19-.23-.41-.24-.5-.77.43-2,.12-2.91,0,.32.68.68,1.37,1.07,2-.46-.21-1.08-.6-1.59-.83s-.92-.36-1-.05l-.42-.75c-.73-.74-1-.71-1.22-.48s-.35.57-.62.28-.41-.62-.6-.93l.78.23a5.16,5.16,0,0,1-1.29-1.56v0a.14.14,0,0,1,0,.12l-.11,0a.91.91,0,0,1-1.18.14c-.63-.43-1.49-.29-2.08-1.65l-.7.42c-.16-.32-.34-.61-.48-.94l.38-.46a13.45,13.45,0,0,0,3.2,1.82l.14-.23a9.85,9.85,0,0,1-1.69-.74c-.14-.2-.19-1,.34-1.14l-.65.24c-1.73-1.28-1.82-1.33-2.8-3.54l-.11.34c-.44-.23-.85-.55-.54-.94a5.63,5.63,0,0,1-.94-3.95l-.73.13c-.1-.31.67-1.18-.3-.9l-.56-.51c-.11-.43-.61-.52-.41-1.15h0a.73.73,0,0,0,.05-.12l-.06,0c-.06-1.06-.59.23-.61-1,.35-.53-1-.11-1-.72l.78-.86c.28-1.17-.78-1-1.14-2.56a1.35,1.35,0,0,1,1.8-1c-1.05-.44-.66-.16-1.28-.93.35-.21.45-.13.83,0,.27-.84-.44-.4-.53-1-.73,0-1.9,0-2-.23l-.18.28a2.14,2.14,0,0,1-.55-2.09l.36,0-.29-.79.45-.11-.29-1.15-.11.17a3.18,3.18,0,0,1-.17-1.7h.25c.65-1.54-.5-2.65-.7-4.4l.54.2c.48-.63-.82-.11-.61-.84l.64-.07c-.88-.58.14-.82.43-1.27l-.83.25.14-.82c.23-.91,1-.6,1.48-.49l-.69-.58.74-.15c-.88-.41.12-.45-.37-1.21.28-.08.45.12.56-.15l-1.1-1.26.5.76-1.1-.06c-.85-.79.09-1.11-.23-1.69l.33.4c-.29-.95.18-1,.4-1.56-.19.17-.49.44-.64.05s.38-.16.49-.43a.92.92,0,0,1-.79-1.37.72.72,0,0,1,.27.06c-.12-.16-.31-.24-.14-.52l.81.15-.78-.53c.21-.36-.38-.87.17-.83l.16.2.16-2.72.64-.05c-.89-.25.33-1.46-.78-1.37.6-.51-.45-2,.81-1.7.09-1.77-1.11-2.74-.5-4.9,1.06-.76.74-2.88.86-4.27-.42-2.72-.79-4.49-1.09-7.28,1.51-1.66-.44-4.2.43-6l-.57-.51c1-1.18-.15-3,.8-4.71a2.93,2.93,0,0,1-.35-.73c0,.07-.14.19-.52.22.28-.48,0-1.46.71-1.38l.08.13c.74.08-.32-1.47.34-2l-.81.28.16-.91.15.25c-1.69-4,.89-5.74-.65-9.51.86.51-.44-.75.51-.77,1.22-.92-.22-1.75-.52-2.53a.27.27,0,0,1-.17-.06l.14-1.34c1.19.83-1-1,0-.23,1-3.5.15-8.12.63-12.19l-.31.18c.08-1-.28-2.33.23-3.11s-.77-1.73-.81-2c-.52-.87.55-1.64.49-1.27-.14-.93-1.23-1.8-.75-3.08,1-.43-1-3.49.17-3.53h-.1c.81-1.64-.56-3.19.16-5a.54.54,0,0,1,.16.09l-3.53-3.56-3.83,1.07-3.1,3.09.66,8.31-1.3,6.65L319,361l.84,1.18c-1.59,3.17.06,7.32-1.1,10.75l.75.09c0,1-.44.89-.58,1.13,0,9.07.78,18.42-.19,26.63-.5.8-.21,3.21-.73,3.84a23.68,23.68,0,0,1,.91,8.18l-.09-.1L319,414a.16.16,0,0,1-.2,0c.69,1.41.09,3.68-.1,5.48l-.09-.1a83.24,83.24,0,0,0,2,15.42,85.21,85.21,0,0,0,5.06,15.81,17.64,17.64,0,0,0,5.21,7.63,45.37,45.37,0,0,0,8.79,6,8,8,0,0,0,2.87,1.26,22.36,22.36,0,0,0,5.53.77A21,21,0,0,0,356.26,464.89Z" transform="translate(0 0)" />
            <path class="cls-1" d="M371.88,453.14l0,0C372.11,453.38,372.06,453.24,371.88,453.14Z" transform="translate(0 0)" />
            <polygon class="cls-1" points="348.33 456.23 348.39 456.24 348.19 455.79 348.33 456.23" />
            <path class="cls-1" d="M359.83,452.53c-.53.22-.5.3-.37.36A.76.76,0,0,0,359.83,452.53Z" transform="translate(0 0)" />
            <path class="cls-1" d="M374.72,447.53c.2-.35,0-.29-.33-.18-.15.38-.26.64-.26.64C374.3,447.82,374.55,447.7,374.72,447.53Z" transform="translate(0 0)" />
            <path class="cls-1" d="M370.23,446.86l-.16-.22C370,446.84,370.1,446.88,370.23,446.86Z" transform="translate(0 0)" />
        </g>
        <g>
            <path class="cls-2" d="M242.18,60.15c-.15,0-.4,0,0,0Z" transform="translate(0 0)" />
            <path class="cls-2" d="M171.37,120.81s0,0,0,.07a2.29,2.29,0,0,1,.23.35Z" transform="translate(0 0)" />
            <path class="cls-2" d="M167.07,132.07l0,.09C167.12,132.15,167.21,132.16,167.07,132.07Z" transform="translate(0 0)" />
            <path class="cls-2" d="M194.46,96.5a.29.29,0,0,0,.17-.21A.78.78,0,0,1,194.46,96.5Z" transform="translate(0 0)" />
            <path class="cls-2" d="M198.9,60.46H199a1.29,1.29,0,0,1-.16-.09Z" transform="translate(0 0)" />
            <path class="cls-2" d="M199.22,60.21c.34.12-.1.21-.26.24a1.63,1.63,0,0,0,1.16.15C200.12,60.36,199.38,60.39,199.22,60.21Z" transform="translate(0 0)" />
            <path class="cls-2" d="M146.52,61.36l.15-.1Z" transform="translate(0 0)" />
            <path class="cls-2" d="M186.62,88.13c0-.07.12-.13.16-.19A.37.37,0,0,0,186.62,88.13Z" transform="translate(0 0)" />
            <path class="cls-2" d="M154.8,61.35l.09-.37A.64.64,0,0,0,154.8,61.35Z" transform="translate(0 0)" />
            <path class="cls-2" d="M171.56,121.23l.08.15A.56.56,0,0,0,171.56,121.23Z" transform="translate(0 0)" />
            <path class="cls-2" d="M169.55,142.84a1,1,0,0,0-.2.21l0,0Z" transform="translate(0 0)" />
            <path class="cls-2" d="M234.11,158.94a.53.53,0,0,0-.06-.14l-.26.29A.8.8,0,0,0,234.11,158.94Z" transform="translate(0 0)" />
            <path class="cls-2" d="M182.31,153.32s.08-.06.1-.1a10.42,10.42,0,0,0-2-.83l-.22.4C180.89,153,181.6,153.16,182.31,153.32Z" transform="translate(0 0)" />
            <path class="cls-2" d="M202.46,166.4l-2.15-1c7-.16,10.26.73,16.21-.17l-.32.21c.43.09.76-.38,2.18-.6s3.92-.2,8.79.69v.09c.34,0,.32-.22,1,0l-1.69-.44a16.4,16.4,0,0,1,3.11-1,.58.58,0,0,1,.43.4l3.21-.44,1,.49c1-.41.38-1.6,3.07-1.18-1.07-.75,1.25-.65.87-1.06.15.09.46.22.72.34,1.55-.27,4.43-.87,5.1-1.39,0,0-1.57-.27-3.35-.62a30.94,30.94,0,0,1-4.63-1.21c2.2,0,.56-.16.11-.4l-.12.22c-1.32-.07-1.38-.61-2-.69a.48.48,0,0,0,.05.14l.08-.08a.15.15,0,0,1,0,.22c0,.11,0,.21-.38.21l.06-.06a9.9,9.9,0,0,1-1.89.13l-.05-.45c-.89,1-6.57-.77-7.84-.73-1.32-.5-2.89.32-4.51.1-2.58,0-1.32-.61-2.62-.95-1.61-.23.35.51-.3.57l-1.94-.57c1.12-.09.5-.34.3-.51-1.67,0-4.28-.83-4.79.06-2.23-.42-2.23-.8-3.18-.85.31.17.95.32.95.51-.89-.41-.43.09-.06.18-1.39.42-7-1.79-7.34-.83v-.18c-.35.73.13,1.46-.84,1.83l-.62-.36-1,.27c-.63-.28-.3-.46-.3-.55-1.56.26-3.77-.29-5.56-.55.58.72,1.17,1.45,1.81,2.16-1.6-.55-4.27-1.83-4.67-1.25l-.82-.81c-1.43-.89-2-.87-2.31-.69s-.51.54-1.07.2-.9-.71-1.32-1.08c.48.14,1,.25,1.47.38a13.38,13.38,0,0,1-2.9-1.92s0,0,0,0,.1.1.1.14l-.2,0c-.28.3-1.11.3-2.08-.09-1.33-.62-2.69-.56-4.35-2.37l-.88.36c-.44-.43-.84-.87-1.24-1.31l.34-.5a27.76,27.76,0,0,0,6.32,3l.13-.25a23.13,23.13,0,0,1-3.36-1.25c-.33-.29-.91-1.32-.08-1.33l-.94.14a16.61,16.61,0,0,1-3.39-2.34,13,13,0,0,1-2.42-3.24l0,.46c-.64-.5-1.26-1.07-1-1.53a10.87,10.87,0,0,1-.83-1.57,6.85,6.85,0,0,1-.31-1.31,7.48,7.48,0,0,1,.1-2.93l-.76-.2c-.06-.54.88-1.46-.12-1.58-.16-.37-.3-.73-.43-1.11,0-.73-.44-1.18-.05-2h0a1.09,1.09,0,0,0,.08-.15H167c.32-1.66-.66,0-.19-1.9.54-.57-.86-.74-.6-1.67.36-.28.75-.54,1.13-.79a3.57,3.57,0,0,0,.23-.51,1.26,1.26,0,0,0,.12-.34,2.27,2.27,0,0,0,0-.68A4.3,4.3,0,0,1,168,124c.8-.9,1.84-1,2.19,0-.38-1.31-.37-.67-.07-2.12.44,0,.44.18.59.61,1-.85.08-.84.6-1.66-.46-.61-1.26-1.52-1.11-1.83l-.4.22a5.43,5.43,0,0,1,1.88-3.09l.26.25c.22-.41.46-.81.69-1.21l.42.21c.35-.56.74-1.1,1.11-1.65l-.26.14a8.12,8.12,0,0,1,1.86-2.21l.18.19a8.34,8.34,0,0,0,2.5-2.52,19.22,19.22,0,0,1,2.33-3l.09.63c1.05-.25-.37-.76.65-1.34l.47.44c.22-1.3,1.12-.73,1.86-.93l-.79-.44,1.16-.72c1.33-.73,1.37.25,1.48.73l.38-1.15.62.46c.06-1.14.66-.36,1.43-1.52.26.15.09.48.52.31l1.1-2.16-.77,1.17-.53-1c.61-1.49,1.57-1,2.19-1.86l-.36.67c1.14-1.18,1.5-.84,2.37-1.19-.35,0-.87,0-.43-.48.36-.33.44.15.88,0-.34-.66.39-1.65,1.45-2a.42.42,0,0,1,.07.28c.15-.25.16-.49.64-.61l.24.82.3-1.15c.62-.16,1-1.14,1.26-.65l-.19.33,3.88-2.41.42.5c-.12-1,2.25-1.1,1.51-1.94,1.05,0,2.61-2.21,2.86-.89,2.57-1.53,3.25-3.4,6.69-4.73a6,6,0,0,0,3.16-1l.53-.29.88-.49,1.76-1c1.16-.66,2.28-1.29,3.31-1.83,7.4-4.62,11.74-7.31,18.76-11.34a43,43,0,0,0,9.63-4.55,46.76,46.76,0,0,1,8.45-4.47c-.26,0-.53-.08-.82-.1l-.69.09c.06-.07.18-.15.08-.19a1.08,1.08,0,0,0-.31-.11,7.42,7.42,0,0,0-1.17-.12c-1,0-2.28,0-3.62,0-2.7,0-5.43.08-6.77-.39-2,.25-2.89.32-3.24.34.16,0,.22.15-.69.51-.73-.26-4.43,0-2.45-.69l.56-.08c1-.36-.38-.28-2-.19s-3.42.18-3.66-.14a7.76,7.76,0,0,1-.65.79l-2.48-.15,1-.14a85.07,85.07,0,0,1-8.78.58c-2.29,0-4.21-.12-6.19-.25s-4-.27-6.22-.28c-.54,0-1.17,0-1.66,0-.33,0-.67,0-1,.08a19,19,0,0,0-2.24.4c.86-.86-1.25.44-1.32-.52-1.58-1.22-3,.22-4.28.52a.24.24,0,0,1-.1.17l-2.29-.15c1.39-1.18-1.66,1-.39,0-6-1-13.79-.16-20.73-.59l.3.31c-1.76-.06-3.95.32-5.29-.17s-2.92.8-3.44.85c-1.46.55-2.8-.5-2.17-.45-1.57.15-3,1.28-5.21.84-.76-1-5.91,1.12-6,0l0,.1c-2.81-.76-5.39.72-8.42.08a.85.85,0,0,1,.16-.17l-6,3.74,1.9,3.78,5.34,2.91c4.7-.38,9.4-.73,14.12-1q5.65.53,11.31,1.14c9.18-.15,18.37-.18,27.6-.18l2-.83a19.4,19.4,0,0,0,4.32.68l1.15,0h.64l.32,0a2.64,2.64,0,0,1,.73-.11c.21,0,.35.11,0,.38l1.31-.73c.42,0-.51.41-.72.54l1.18-.11.77-.07.42,0,.22,0s.09,0,.1,0l0,0a7.75,7.75,0,0,1-1.71,1.26,14.1,14.1,0,0,1-1.45.74l-.36.14a3.18,3.18,0,0,0-.81.38l-3.34,1.73a14,14,0,0,0-3.13,1.49,12.28,12.28,0,0,1-2.91,1.39,81.63,81.63,0,0,1-11.21,8.5l.1-.16-1.68,1.37c-.11,0-.18-.07-.15-.15-1.61,2-5.1,3.7-7.67,5.39l.09-.17c-1.77,1.35-3.5,2.8-5.23,4.36a61.2,61.2,0,0,0-4.77,5,82.06,82.06,0,0,0-8,10.76,47.75,47.75,0,0,0-3.29,6.34,27.19,27.19,0,0,0-1.29,3.73c-.16.68-.35,1.44-.45,2.06s-.2,1.23-.26,1.84a45,45,0,0,0,.72,14.8,16.6,16.6,0,0,0,1.08,3.94,21.69,21.69,0,0,0,2,3.72,27.45,27.45,0,0,0,5.61,6,39,39,0,0,0,3.32,2.36c1.16.72,2.34,1.41,3.54,2,2.39,1.25,4.82,2.32,7.24,3.32a15.28,15.28,0,0,0,4.18,1.46,51.75,51.75,0,0,0,7.72,1.21c.68,0,1.4.1,2,.13l1.88.08c1.21.05,2.37.06,3.38.07A36.78,36.78,0,0,0,202.46,166.4Z" transform="translate(0 0)" />
            <path class="cls-2" d="M230,164.6H230C230,164.92,230.08,164.79,230,164.6Z" transform="translate(0 0)" />
            <polygon class="cls-2" points="192.12 156.19 192.23 156.21 191.85 155.72 192.12 156.19" />
            <path class="cls-2" d="M215.9,156.54c-1.07-.06-1.12,0-1,.14A2.26,2.26,0,0,0,215.9,156.54Z" transform="translate(0 0)" />
            <path class="cls-2" d="M239,163.12c.57,0,.33-.2,0-.37l-1,.17C238.27,163,238.62,163.08,239,163.12Z" transform="translate(0 0)" />
            <path class="cls-2" d="M236.16,159.13l.15-.28C236,159,236,159,236.16,159.13Z" transform="translate(0 0)" />
        </g>
        <g>
            <path class="cls-1" d="M180.39,287c-.13-.21-.25-.27,0,0Z" transform="translate(0 0)" />
            <path class="cls-1" d="M226.2,458.41l-.2.11a4.7,4.7,0,0,1-.22.61Z" transform="translate(0 0)" />
            <path class="cls-1" d="M193.21,468l-.22,0C193,468,193,468.15,193.21,468Z" transform="translate(0 0)" />
            <path class="cls-1" d="M256.84,387.52a1.38,1.38,0,0,0-.15-.58A4.37,4.37,0,0,1,256.84,387.52Z" transform="translate(0 0)" />
            <path class="cls-1" d="M160.23,237.3a.85.85,0,0,0,0,.13,1.92,1.92,0,0,1,.11-.31Z" transform="translate(0 0)" />
            <path class="cls-1" d="M160.5,237.9c-.13.65-.23-.18-.26-.47a4.12,4.12,0,0,0-.16,2.17C160.31,239.59,160.3,238.22,160.5,237.9Z" transform="translate(0 0)" />
            <path class="cls-1" d="M229.38,184.56l-.32.11A1.69,1.69,0,0,0,229.38,184.56Z" transform="translate(0 0)" />
            <path class="cls-1" d="M244.33,391.93c0-.15-.07-.31-.1-.45A1,1,0,0,0,244.33,391.93Z" transform="translate(0 0)" />
            <path class="cls-1" d="M212.78,184.89l-.15.43A.52.52,0,0,0,212.78,184.89Z" transform="translate(0 0)" />
            <path class="cls-1" d="M225.78,459.13l-.17.27A1.24,1.24,0,0,0,225.78,459.13Z" transform="translate(0 0)" />
            <path class="cls-1" d="M161.77,467.7a.58.58,0,0,0-.12-.34l-.09,0Z" transform="translate(0 0)" />
            <path class="cls-1" d="M107.14,348a.5.5,0,0,0-.18,0l-.08.66A2.35,2.35,0,0,0,107.14,348Z" transform="translate(0 0)" />
            <path class="cls-1" d="M123.22,448.72c-.06,0-.17,0-.2,0a27,27,0,0,0,4,3.29l.42-.32C126,450.75,124.59,449.76,123.22,448.72Z" transform="translate(0 0)" />
            <path class="cls-1" d="M107.88,407.11c.08,1.33.21,2.69.39,4.05a48.08,48.08,0,0,1-2.74-8c-.32-1.2-.52-2.35-.72-3.45l-.24-1.63c-.07-.59-.14-1.17-.2-1.75-.53-4.66-1-9-1.48-14.53l.24.61c.11-.8-.45-1.43-.57-4.07a24.78,24.78,0,0,1,.51-5.64,33.22,33.22,0,0,1,3.47-9.29l.1,0a2.68,2.68,0,0,1,.65-1.55,28.93,28.93,0,0,0-1.56,2.44c.16-.85.2-1.69.4-2.55A12.18,12.18,0,0,1,107,359c.32-.39.58-.45.75-.42.35-.86.84-1.66,1.26-2.49l.33-.63.4-.68.79-1.36,1.58-1.24a6.14,6.14,0,0,0,.24-2c.11-.66.56-1.69,2.28-3.24-.92.38-.69-.16-.29-.77s.94-1.28.56-1.23c.24-.1.75-.38,1.16-.58.91-1.05,2.44-2.67,3.83-4.25a24.19,24.19,0,0,0,2.93-3.77s-2.58,1.91-5.54,3.89c-1.47,1-3,2-4.24,2.91s-2.33,1.8-3,2.29c2.85-3.23.6-1-.19-.5l0,.38c-1.72,2-2.21,1.66-3.09,2.67a.36.36,0,0,0,.19,0l0-.19c.16,0,.18.06.16.21s.14.21-.28.79l0-.15c-.53,1-1.63,2.54-2.1,3.23l-.45-.26c-.1,1.1-2.11,3.7-3.89,6.67-.43.75-.91,1.49-1.3,2.24L98,362.64a23.1,23.1,0,0,0-1.27,3.19c-1.26,2.55-1,6.05-1.58,9.39-.27,2.7-.44,3.37-.67,3.71a2.55,2.55,0,0,0-.74,1.7c-.28,3.43.59-.69.64.68-.22,1.36-.44,2.73-.6,4.1-.17-2.37-.42-1.07-.6-.63,0,3.56-.32,9.22.85,10.16,0,2.38,0,3.58,0,4.44a11.67,11.67,0,0,0,.1,2.53c.06-.75,0-2.18.2-2.22-.12,2,.26.92.23.1.43,1.47.71,5.39,1.41,9s1.66,6.75,2.29,6.83l-.19.08c1,.32,1.36-1,2.59.71l.2,1.4,1.18,1.71c.36,1.36-.14.85-.23.89.9,1.44,1.81,3.22,2.8,5.09.49.94,1,1.9,1.57,2.85.27.47.58.95.88,1.41l.88,1.28c-.24-1.57-.5-3.27-.58-4.85.33.79.75,1.73,1.25,2.71s1,1.92,1.55,2.78c1,1.76,2.08,3.11,2.57,3.13.23.69.48,1.37.74,2,3.51,6.07,3.7,3.07,5.27,5.31.6,1,1.27,2,1.93,3-.84-.79-1.69-1.55-2.49-2.37,2.17,2.71,3,3.82,4.82,6h0c-.13-.15-.2-.26-.19-.32l.39.3c.57,0,2.19.85,4.1,2.37.69.52,1.38,1,2.07,1.43s1.41.91,2.19,1.36,1.58,1,2.47,1.63,1.92,1.3,3,2.18c.54,0,1.09-.09,1.63-.14,1.18.74,2.33,1.57,3.57,2.23l-.27.63c-1-.38-2.09-1-3.36-1.55s-2.62-1.3-4-2A71.41,71.41,0,0,1,127,452l-.26.2c2.56,1.86,5.74,3.55,7.53,4.63.81.61,2.78,2.52.89,2,.69.12,1.35.27,2.06.35l3.2,1.53c.95.43,1.82.76,2.59,1.09,1.55.67,2.83,1.12,4.12,1.6l2,.76,2.29.76c.82.26,1.75.62,2.78.91l3.51,1-.86-.53c2.16.27,4.33.36,4.84,1,6.48,1.16,13.29,1.86,17.64,2.59l.93-.8c1.39,0,3.57,1.08,4.18-.07,1-.17,2-.41,2.95-.61,1.91-.1,3-.73,5.21-.57h0l.42,0s0,0,0-.06c4.32-.35-.16-.68,4.78-1.09,1.67.24,1.5-1.36,3.86-1.7.87.21,1.73.35,2.61.52a16.62,16.62,0,0,0,2.7-.52,21.13,21.13,0,0,0,2.08-.86l2.38-1.11c.93-.43,2.06-.92,3.53-1.45,2.95-.73,4.7-.41,3.15,1.17,2.18-2,.94-1.07,4.09-3.06.69.16.38.4-.21,1.1,3.22-.93,1.64-1.14,4.07-2.36.33-1.09.45-2.65,1.14-3.12l-1,.28a84.19,84.19,0,0,1,7.11-5.26l.18.39c.81-.78,1.59-1.57,2.35-2.38l.51.24c1.12-1.16,2.13-2.27,3.2-3.54l-.57.42c.37-.45,1.18-1.46,2-2.52s1.64-2.18,2.33-2.92l.19.23a25.4,25.4,0,0,0,2.52-3l.51-.74.35-.51c.14-.22.23-.37.33-.55.4-.68.7-1.28,1-1.9.6-1.23,1.14-2.47,1.72-3.78s1.18-2.62,1.95-4.23c0,.4.08.74.12,1.1.78-.88.7-1.3.56-1.64s-.25-.79.39-2.13l.74.1c-.09-2.72,1.17-3,2-4.55l-1.12.5c.34-1,.66-2,1-3,1.08-3.22,1.64-1.76,2-1.16l-.24-2.43.92-.27a2.29,2.29,0,0,1,0-1.89,8.64,8.64,0,0,0,.32-1c0-.22.08-.47.11-.76a10.34,10.34,0,0,0,.06-1.34c.18-.16.29,0,.38.09s.21-.09.32-.67a40.28,40.28,0,0,0-1-5.35c.18,1,.34,2,.48,3.08l-1.22-.43c-.87-3.18.15-4.22-.26-6.4l.41,1.49c-.41-3.54.08-3.73.24-5.75-.19.63-.48,1.59-.73.18-.13-1,.4-.6.46-1.6-.83-.19-1.46-2.63-1.37-5a.4.4,0,0,1,.33.19,4,4,0,0,1-.44-2l1,.52L256,383.24a4.49,4.49,0,0,0-.12-.69,4.67,4.67,0,0,0-.14-.5c-.11-.33-.24-.65-.35-.93-.22-.56-.34-1,0-1l.37.64c-.79-3.09-1.62-6.22-2.56-9.4l.65-.36c-1.22-.6-1.43-5.35-2.52-4.6a14.13,14.13,0,0,0-1.52-4.2c-.65-1.41-1.17-2.48-.26-2.27a34.65,34.65,0,0,0-5-7.58c-1.82-2.18-3.72-4.43-6-7.66-.44-1.46-2-3.59-3.85-5.77s-4.08-4.49-5.76-6.34c-7.17-6.7-12-10.64-19.48-17-3.19-5.23-11.15-9.46-15-14.44l-1.7-.69a31.47,31.47,0,0,0-5-5.51,29.88,29.88,0,0,1-5.39-6.42,15.63,15.63,0,0,1-1.86-1.56.88.88,0,0,1,0,1c-.79-1.42-3.08-3.71-2.25-4.06l.31.27c.41-.16-.38-1.06-1.33-2.15a9.74,9.74,0,0,1-2.19-3.35l-.2,1.3c-.54-.84-1.05-1.7-1.52-2.58l.57.58A38.76,38.76,0,0,1,166,264.34c-1.51-4.33-2.68-8.55-4.74-14.24.65.68.39.13.13-.64s-.5-1.78,0-1.93a7,7,0,0,0-.16-4.19,33.88,33.88,0,0,1-1.15-3.74c-.06,0-.12,0-.21-.17.06-1.44.11-2.89.23-4.32,1.18,2.65-.9-3.18.09-.74q.17-1.05.33-2.13c.14-.72.27-1.44.41-2.18.23-1.48.63-3,.94-4.51a66.94,66.94,0,0,1,2.89-9.21l.45-1.15.52-1.11c.36-.74.68-1.51,1.07-2.23a44.26,44.26,0,0,1,2.53-4.21,38.65,38.65,0,0,1,2.95-3.84,34.37,34.37,0,0,1,3.4-3.23l-.64.1c.6-.5,1.2-1.08,1.83-1.64l2-1.55.5-.38.55-.36c.37-.24.74-.46,1.1-.67a11.68,11.68,0,0,1,2-1c2.47-.88,4.37-3.58,5.24-4.09,2.23-1.81,5-1.58,3.9-1.2,1.28-.67,2.49-1.41,3.89-2.18a21.75,21.75,0,0,1,2.31-.94,12.32,12.32,0,0,1,2.82-.51,1.88,1.88,0,0,0,.92.09,10.23,10.23,0,0,0,1.47-.18c.56-.11,1.17-.25,1.81-.41l2-.42a28.17,28.17,0,0,1,3.66-.63c1-.09,1.67-.05,1.72.28l0-.12c5.55.56,10.79-1.12,16.88-.4a1.23,1.23,0,0,1-.32.19l12.36-4.08-3.58-4.33q-5.4-1.74-10.86-3.41c-4.92.21-9.88.49-14.91.93a99.31,99.31,0,0,0-15.47,2.5,59.38,59.38,0,0,0-12.58,3.73,96.59,96.59,0,0,0-11.27,5.73c-1,.62-2.2,1.57-3.3,2.38a33.44,33.44,0,0,0-3.22,2.71c-.51.47-1.05.92-1.53,1.42l-1.43,1.52c-.47.51-1,1-1.41,1.53l-1.29,1.62a58.58,58.58,0,0,0-8.18,14,71.45,71.45,0,0,0-5.17,31c.36,1.49.84,2.95,1.31,4.39a41.36,41.36,0,0,0,.91,9.68,66,66,0,0,0,3.05,9.94c1.24,3.29,2.78,6.46,4.28,9.56s3.12,6.06,4.6,8.94l.86-.23a14.73,14.73,0,0,1,1.53,2.76,7.66,7.66,0,0,0,.31,1.13,109.29,109.29,0,0,0,7.81,9.88c.68.8,1.4,1.55,2.11,2.32s1.42,1.54,2.17,2.27l2.21,2.21,2.19,2.1c5.84,5.55,11.79,10.83,17.56,16S209.8,333.15,215,338.38c2.57,2.62,5.06,5.25,7.38,7.93s4.63,5.41,6.64,8.07c.64,1.18,2.18,3.23,3.54,5.23a18.41,18.41,0,0,1,2.61,4.9,41,41,0,0,1,5.61,11.29c.73,2.13,1.4,4.34,2,6.56.31,1.12.62,2.24.92,3.35a4.12,4.12,0,0,1,.12.51c0,.06.06.37.1.55.07.39.13.94.19,1.42l-.13-.29c.22,1.25.42,2.59.58,3.94-.05.18-.15.21-.23.09a33.44,33.44,0,0,1,.68,8.38c0,1.52-.16,3.09-.34,4.39,0,.28-.09.66-.15.85s-.13.52-.19.78c-.18.73-.36,1.43-.53,2.12l0-.34c-.4,2-.84,4-1.34,5.93a51.8,51.8,0,0,1-1.59,5.33c-.07.15-.14.36-.19.46l-.07.18-.13.26-.65,1.3-1.42,2.73L236.93,427l-.69,1.22-.3.49-.07.11-.23.33c-1.29,1.87-2.41,3.61-3.5,5.15-.55.77-1.09,1.49-1.61,2.13-.29.34-.49.59-.82.95l-1,1a39.28,39.28,0,0,1-8.29,6.8c-.75.47-1.52.88-2.3,1.28l-2.65,1.25c-.89.44-1.79.82-2.7,1.19s-1.8.79-2.73,1.11a88.67,88.67,0,0,1-11.28,3.5,81.06,81.06,0,0,1-23.7,2.06c-3.72-.4-7.55-.94-11.48-1.55l-3-.51-3-.61c-1-.17-1.95-.45-2.91-.69a29.06,29.06,0,0,1-2.87-.79,53,53,0,0,1-21.25-12.26,17.44,17.44,0,0,0-1.72-1.8c-.86-.89-2-2-3.3-3.3a108.23,108.23,0,0,1-8.53-9.85l-.54-.7-.26-.35-.21-.3c-.28-.36-.57-.81-.86-1.24-.58-.89-1.15-1.81-1.68-2.74-1.08-1.86-2-3.69-2.82-5.33C109.15,410.26,108.2,407.77,107.88,407.11Z" transform="translate(0 0)" />
            <path class="cls-1" d="M107.76,358.55l-.05.12C108,358.82,108,358.6,107.76,358.55Z" transform="translate(0 0)" />
            <path class="cls-1" d="M108.06,431.21l-.14-.21.16,1.07Z" transform="translate(0 0)" />
            <path class="cls-1" d="M93,382.7c-.07,2.32.07,2.41.18,2.08A12.36,12.36,0,0,0,93,382.7Z" transform="translate(0 0)" />
            <path class="cls-1" d="M116.36,344.61c.74-.73.32-.6-.29-.31-.69.8-1.13,1.36-1.13,1.36C115.37,345.28,115.89,345,116.36,344.61Z" transform="translate(0 0)" />
            <path class="cls-1" d="M109.83,344.87v-.46C109.47,345,109.57,345,109.83,344.87Z" transform="translate(0 0)" />
        </g>
    </g>
    <line id="line-left" class="cls-3" x1="5" y1="5" x2="5" y2="527.71" />
    <line id="line-right" class="cls-3" x1="463.07" x2="463.07" y2="523.15" />
    <line id="line-bottom" class="cls-3" x1="5" y1="522.71" x2="468" y2="522.71" />
    <line id="line-top" class="cls-3" y1="5" x2="463" y2="5" />
</svg>
